<?xml version="1.0" encoding="utf-8"?>
<!-- Generator: Adobe Illustrator 21.1.0, SVG Export Plug-In . SVG Version: 6.00 Build 0)  -->
<svg version="1.1" id="logo" xmlns="http://www.w3.org/2000/svg" xmlns:xlink="http://www.w3.org/1999/xlink" viewBox="0 0 200 200" style="enable-background:new 0 0 200 200;" xml:space="preserve">
<style type="text/css">
	.st1{fill:none;stroke:#FFFFFF;stroke-width:2.126;stroke-miterlimit:10;}
	.st2{fill:none;stroke:#FFFFFF;stroke-width:5.6693;stroke-miterlimit:10;}
</style>
<path class="st1" d="M90.3,142l8.4-7.1l-4.8-0.6c-4.2-0.6-7.7-3.3-9.8-7.7c-1.7-3.6-2.3-8-1.7-12.3c0-0.4,0.2-1.3,0.2-1.7l-10.7-5
	c-3.3-1.7-7.1-1.5-10.9,0.8c-3.3,1.9-5.9,4.8-7.7,8.8c-1.9,3.8-2.5,8-1.9,11.5c0.6,4.2,2.7,7.5,6.3,9l28.5,13.6
	c0.2-2.1,0.6-4,1.9-5.7C88.2,143.9,89.1,142.8,90.3,142z M67.3,134.5c-2.9,1.9-6.3,2.1-8.8,0.6c-2.7-1.5-4.4-4-5-7.5
	c-0.4-3.3,0.2-6.7,1.9-10.3c1.7-3.6,4-6.3,6.7-7.7c2.9-1.9,6.3-2.1,8.8-0.6c2.7,1.5,4.4,4,5,7.5c0.4,3.3-0.2,6.7-1.9,10.3
	C72.3,130.3,70,132.8,67.3,134.5z M68.1,115c-1.9-0.6-5,1.5-7.1,5.4c-1.9,4.2-1.5,8.2,0.2,9c1.9,0.6,5-1.5,7.1-5.4
	C70.2,119.8,69.8,115.8,68.1,115z M62.3,127.6L62.3,127.6c0,0-0.2,0-0.4,0c0,0-0.2,0-0.2-0.2l0,0c-0.2-0.8-0.4-3.3,0.8-5.9
	c1.3-2.5,2.9-4,4-4.4l0,0h0.2c0,0,0.2,0,0.2,0.2c0.2,0.8,0.4,3.3-0.8,5.9C65.2,125.7,63.5,126.9,62.3,127.6z M149.3,132
	c-0.2-1.5-0.4-2.7-0.8-4c-0.8,2.9-2.3,5.4-4.2,7.5c-2.1,2.3-4.8,4-7.7,4.4c-1.5,0.2-2.5,0.2-4,0l-17.2-2.5l-1.7-0.2l-12.8-1.9
	l-9.6,8c-2.3,2.1-3.8,4.8-4,8.4c0,0.6,0,1.3,0,1.9c0,0.2,0,0.4,0,0.6c0.4,3.8,2.3,7.7,5,10.9c2.9,3.3,6.5,5.9,10.3,6.7
	c4.4,1.3,8.4,0.4,11.1-2.1l31.2-27C148.3,140.3,149.8,136.4,149.3,132z M112.7,168c-2.3,2.1-5.7,2.5-9.4,1.7c-3.3-0.8-6.5-2.9-9-6.1
	c-2.5-2.7-4-6.1-4.6-9.4c0-0.2,0-0.4,0-0.6c0-0.4,0-0.8,0-1.3c0-3.3,0.8-5.9,2.9-7.7c2.3-2.1,5.7-2.5,9.4-1.7c2.5,0.6,5,2.1,7.5,4.4
	c0.4,0.4,0.6,0.6,1.3,1.3c0.2,0.2,0.2,0.2,0.4,0.4c2.5,2.9,4.2,6.5,4.6,9.8C116.3,162.7,115.2,165.9,112.7,168z M106.2,153.5
	L106.2,153.5c-0.4-0.4-0.6-0.6-1.3-1.3c-2.9-2.7-6.3-3.8-7.7-2.3c-0.8,0.6-1.3,2.7-0.2,5c0.2,0.4,0.4,1.3,0.6,1.7
	c0.4,0.8,1.3,1.9,1.9,2.5c3.3,3.8,7.1,4.8,8.8,3.8C110,161.5,109.2,157.3,106.2,153.5z M106.8,161.1L106.8,161.1L106.8,161.1
	c-1.5-0.2-3.6-1.3-5.2-3.3c-0.4-0.4-0.6-0.8-1.3-1.5c-0.4-0.4-0.6-0.8-0.6-1.5c-0.4-1.3-0.6-2.1-0.6-2.5l0,0v-0.2h0.2
	c0.6,0,2.1,0.6,3.8,1.9c0.4,0.4,0.6,0.6,1.3,1.3l0.2,0.2C106.4,157.7,106.8,159.8,106.8,161.1L106.8,161.1
	C106.8,160.9,106.8,161.1,106.8,161.1z M146.2,112.1c-1.9-3.8-4.8-6.3-8.6-6.7l-10.7-1.7c-4.6,4.4-9,7.7-12.8,9
	c-4.2,1.9-8.8,2.9-13.8,2.9c-4.8,0-9.8-1.3-13.8-2.9c-0.6-0.2-1.5-0.4-2.1-0.8l-0.4,1.3c0,0.4-0.2,0.6-0.2,1.3
	c-0.6,4.2,0,8.2,1.5,11.7c1.9,3.8,4.8,6.3,8.6,6.7l6.3,0.8l2.1,0.4l11.1,1.7l1.7,0.2l17.4,2.5c3.8,0.4,7.1-0.8,10.3-4
	c2.1-2.3,3.8-5.4,4.4-8.8c0.2-0.6,0.2-1.3,0.4-1.9c0-0.2,0-0.4,0-0.6C148.1,119.2,147.7,115.2,146.2,112.1z M145.6,122.5
	c0,0.2,0,0.4,0,0.6c-0.4,3.8-2.1,6.9-4.2,9.6c-2.3,2.5-5.4,3.8-8.4,3.3c-2.9-0.4-5.4-2.5-6.9-5.7c-1.5-2.9-1.9-6.5-1.5-10.3
	c0.4-2.1,0.8-4.4,1.9-6.3c0.4-0.6,0.6-1.5,1.3-2.1c0.4-0.4,0.6-0.8,1.3-1.3c2.3-2.5,5.4-3.8,8.4-3.3c2.9,0.4,5.4,2.5,6.9,5.7
	c0.8,2.1,1.5,4.4,1.5,6.9C145.8,121.1,145.8,121.9,145.6,122.5z M136.2,113.8c-0.4,0-1.3,0-1.7,0.4c-1.5,1.3-2.9,3.6-3.6,6.9
	c-0.6,4.6,0.8,8.4,2.7,8.6c1.9,0.2,4.4-2.7,5-7.1c0.4-2.5,0-4.6-0.6-6.3C138,114.8,137.2,114,136.2,113.8z M137,121.9
	c-0.4,2.9-1.7,4.6-2.5,5.4l0,0h-0.4c0,0-0.2,0-0.2-0.2c-0.4-0.6-1.3-2.9-0.6-5.9c0.4-2.9,1.7-4.6,2.5-5.4l0,0h0.2h0.2l0,0
	C136.6,117.1,137.4,119.2,137,121.9z"/>
<path class="st2" d="M141.6,59.8c-3.8,6.9-9,12.3-13.8,15.9c-2.9-14.7-14.7-25.3-14.7-25.3c0.4,4.6-0.4,9.6-2.1,13.6
	c-0.4-0.6-1.3-1.3-1.7-1.9C98.3,50.3,98.9,34,98.9,34c-9.6,8.4-14.4,16.3-17,22.6c-4.4-10-3.3-19-3.3-19
	c-7.7,12.8-10.9,24.1-11.7,33.5c-2.9-2.9-6.1-6.7-8.4-11.1c0,0-2.1,23.4,13,39.8c5,5.4,9.4,8.8,12.8,10.5c0.6,0.4,1.5,0.6,2.1,0.8
	c3.8,1.9,8.4,2.7,13.2,2.7s9.6-1.3,13.2-2.7c2.9-1.3,6.7-3.6,11.1-7.7c1.3-1.3,2.5-2.3,3.8-3.8C143.7,83.2,141.6,59.8,141.6,59.8z"
	/>
</svg>
